<?xml version="1.0" encoding="utf-8"?>
<!-- Generator: Adobe Illustrator 26.0.1, SVG Export Plug-In . SVG Version: 6.00 Build 0)  -->
<svg version="1.1" id="Layer_1" focusable="false" xmlns="http://www.w3.org/2000/svg" xmlns:xlink="http://www.w3.org/1999/xlink"
	 x="0px" y="0px" viewBox="0 0 448 512" style="enable-background:new 0 0 448 512;" xml:space="preserve">
<style type="text/css">
	.st0{fill:#38548F;}
</style>
<path class="st0" d="M400,29H48c-26.5,0-48,21.5-48,48v352c0,26.5,21.5,48,48,48h137.3V324.7h-63V253h63v-54.6
	c0-62.2,37-96.5,93.7-96.5c27.1,0,55.5,4.8,55.5,4.8v61h-31.3c-30.8,0-40.4,19.1-40.4,38.7V253h68.8l-11,71.7h-57.8V477H400
	c26.5,0,48-21.5,48-48V77C448,50.5,426.5,29,400,29z"/>
</svg>
